# xmcd
#
# Track frame offsets:
#  150
#  19194
#  44055
#  68091
#  92028
#
# Disc length: 1520 seconds
#
# Revision: 2
# Processed by: cddbd v1.5.1PL0 Copyright (c) Steve Scherf et al.
# Submitted via: Collectorz.com_Music_Collector 6.9
#
DISCID=3e05ee05
DTITLE=Smokin' Spitfires - Right O.K.
DYEAR=2003
DGENRE=Blues
TTITLE0=I Can't Hold Out Too Long
TTITLE1=Who Am I?
TTITLE2=Right Time Of Night
TTITLE3=Check y' Change
TTITLE4=Each Time You Leave Me
EXTD=
EXTT0=
EXTT1=
EXTT2=
EXTT3=
EXTT4=
PLAYORDER=
